<svg width="504" height="363" viewBox="0 0 504 363" fill="none" xmlns="http://www.w3.org/2000/svg">
<g clip-path="url(#clip0_1_2)">
<path d="M270.765 45.5978C218.58 62.2591 53.2852 -19.8982 66.2212 92.3232C68.2426 109.01 78.9906 132.579 69.9132 148.158C63.3372 159.824 51.2812 166.66 39.6359 171.196C9.21723 183.563 -2.10811 206.772 5.59456 239.898C26.1999 329.158 138.369 307.99 197.255 281.523C239.132 261.827 288.521 258.444 331.885 275.106C365.857 288.672 387.035 317.132 426.907 308.795C462.268 301.699 467.604 268.315 457.279 237.238C451.412 218.011 447.2 209.887 458.836 191.328C468.64 172.896 485.899 158.93 487.227 137.336C487.516 113.948 476.769 90.3805 455.971 81.5218C438.955 74.2752 423.529 77.2005 406.696 72.7445C369.252 62.2218 345.189 4.04449 298.739 24.0525C287.157 29.5192 280.64 42.1178 268.02 45.7872" fill="#FF0000"/>
<path d="M251.843 37.5834C256.573 37.5834 256.573 30.25 251.843 30.25C247.114 30.25 247.114 37.5834 251.843 37.5834Z" fill="#FF0000"/>
<path d="M34.5933 150.333C44.052 150.333 44.052 135.667 34.5933 135.667C25.1347 135.667 25.1347 150.333 34.5933 150.333Z" fill="#FF0000"/>
<path d="M475.51 208.816C484.969 208.816 484.969 194.15 475.51 194.15C466.051 194.15 466.051 208.816 475.51 208.816Z" fill="#FF0000"/>
<path d="M227.093 33.9167C236.552 33.9167 236.552 19.25 227.093 19.25C217.635 19.25 217.635 33.9167 227.093 33.9167Z" fill="#FF0000"/>
<path d="M490.177 185.533C502.473 185.533 502.473 166.467 490.177 166.467C477.881 166.467 477.881 185.533 490.177 185.533Z" fill="#FF0000"/>
<path d="M9.84401 174.533C22.14 174.533 22.14 155.467 9.84401 155.467C-2.45199 155.467 -2.45199 174.533 9.84401 174.533Z" fill="#FF0000"/>
<path d="M416.843 59.9499C429.139 59.9499 429.139 40.8832 416.843 40.8832C404.547 40.8832 404.547 59.9499 416.843 59.9499Z" fill="#FF0000"/>
<path d="M248.177 22C262.365 22 262.365 1.65701e-05 248.177 1.65701e-05C233.99 1.65701e-05 233.99 22 248.177 22Z" fill="#FF0000"/>
<path d="M498.061 202.766C505.154 202.766 505.154 191.766 498.061 191.766C490.967 191.766 490.967 202.766 498.061 202.766Z" fill="#FF0000"/>
<path d="M7.27695 143.917C14.3703 143.917 14.3703 132.917 7.27695 132.917C0.183622 132.917 0.183622 143.917 7.27695 143.917Z" fill="#FF0000"/>
<path d="M439.76 70.5834C446.853 70.5834 446.853 59.5834 439.76 59.5834C432.667 59.5834 432.667 70.5834 439.76 70.5834Z" fill="#FF0000"/>
<path d="M437.927 50.4167C442.656 50.4167 442.656 43.0833 437.927 43.0833C433.197 43.0833 433.197 50.4167 437.927 50.4167Z" fill="#FF0000"/>
<path d="M66.4944 37.7658C75.9531 37.7658 75.9531 23.0991 66.4944 23.0991C57.0357 23.0991 57.0357 37.7658 66.4944 37.7658Z" fill="#FF0000"/>
<path d="M483.76 290.584C493.219 290.584 493.219 275.917 483.76 275.917C474.301 275.917 474.301 290.584 483.76 290.584Z" fill="#FF0000"/>
<path d="M7.09401 297.001C16.5527 297.001 16.5527 282.334 7.09401 282.334C-2.36465 282.334 -2.36465 297.001 7.09401 297.001Z" fill="#FF0000"/>
<path d="M88.4944 26.7658C93.2237 26.7658 93.2237 19.4324 88.4944 19.4324C83.7651 19.4324 83.7651 26.7658 88.4944 26.7658Z" fill="#FF0000"/>
<path d="M484.677 261.251C489.406 261.251 489.406 253.917 484.677 253.917C479.947 253.917 479.947 261.251 484.677 261.251Z" fill="#FF0000"/>
<path d="M29.0933 306.167C33.8227 306.167 33.8227 298.834 29.0933 298.834C24.364 298.834 24.364 306.167 29.0933 306.167Z" fill="#FF0000"/>
<path d="M133.779 182.697C128.839 184.443 125.577 184.776 123.047 179.78C121.097 175.932 119.797 171.96 117.344 168.359C112.027 160.552 106.877 160.029 98.3628 161.141C89.9121 162.244 78.3841 160.085 77.1015 150.313C76.1881 143.348 76.1348 136.944 73.0841 130.428C71.5828 127.219 66.8415 130.012 68.3361 133.204C71.7188 140.435 70.2401 148.305 72.7161 155.669C75.2268 163.141 83.5921 165.551 90.6228 166.391C95.9361 167.024 100.588 165.743 105.797 165.748C111.392 165.755 115.212 175.352 116.985 179.564C120.681 188.348 125.917 191.295 135.241 188.001C138.561 186.828 137.132 181.513 133.779 182.697Z" fill="#1C1C1B"/>
<path d="M75.6559 123.005C74.0092 125.163 71.9959 126.509 69.5999 127.716C67.0652 128.993 69.2946 132.788 71.8212 131.516C74.9359 129.947 77.3346 128.004 79.4559 125.227C80.1852 124.271 79.6052 122.767 78.6666 122.216C77.5346 121.555 76.3826 122.055 75.6559 123.005Z" fill="#1C1C1B"/>
<path d="M67.7776 117.15C67.7896 121.802 68.4683 126.428 68.5109 131.083C68.5363 133.919 72.9363 133.922 72.9109 131.083C72.8683 126.428 72.1896 121.802 72.1776 117.15C72.1696 114.312 67.7696 114.312 67.7776 117.15Z" fill="#1C1C1B"/>
<path d="M60.3557 121.639C63.2997 125.319 66.2891 128.991 70.3331 131.516C72.7477 133.023 74.9544 129.215 72.5544 127.716C68.8624 125.411 66.1517 121.884 63.4664 118.528C61.6931 116.312 58.6024 119.447 60.3557 121.639Z" fill="#1C1C1B"/>
<path d="M56.6891 128.238C60.7824 132.108 65.8851 133.391 71.2957 131.738C74.0011 130.911 72.8464 126.663 70.1264 127.494C66.2197 128.688 62.7891 127.952 59.7997 125.127C57.7411 123.179 54.6237 126.286 56.6891 128.238Z" fill="#1C1C1B"/>
<path d="M358.727 196.349C358.925 189.161 361.327 186.764 368.266 186.198C372.774 185.83 377.347 185.892 381.806 185.062C388.61 183.794 388.483 174.408 391.117 169.565C395.138 162.165 405.941 162.952 412.913 160.766C420.593 158.358 423.541 151.856 423.994 144.282C424.206 140.738 418.705 140.758 418.494 144.282C417.819 155.549 409.557 155.941 400.481 157.809C392.481 159.454 387.063 163.84 384.282 171.549C383.411 173.961 383.199 178.992 380.343 179.758C375.693 181.006 370.339 180.436 365.554 180.954C356.562 181.929 353.463 187.816 353.227 196.349C353.13 199.898 358.63 199.888 358.727 196.349Z" fill="#1C1C1B"/>
<path d="M411.056 137.534C412.936 142.017 416.176 145.258 420.66 147.138C421.768 147.602 423.08 146.645 423.365 145.601C423.714 144.333 422.934 143.358 421.829 142.894C418.937 141.682 416.512 139.257 415.298 136.365C414.834 135.259 413.861 134.478 412.592 134.827C411.548 135.115 410.59 136.426 411.056 137.534Z" fill="#1C1C1B"/>
<path d="M417.576 131.816V142.816C417.576 145.654 421.978 145.654 421.978 142.816V131.816C421.978 128.979 417.576 128.979 417.576 131.816Z" fill="#1C1C1B"/>
<path d="M424.989 132.698C423.656 136.545 421.353 139.439 418.221 141.994C416.021 143.789 419.155 146.882 421.333 145.105C425.063 142.062 427.653 138.419 429.232 133.867C430.164 131.179 425.912 130.034 424.989 132.698Z" fill="#1C1C1B"/>
<path d="M430.345 137.306C428.429 140.345 425.399 142.286 422.126 143.629C419.538 144.69 420.669 148.947 423.295 147.871C427.679 146.074 431.57 143.609 434.145 139.527C435.662 137.119 431.854 134.914 430.345 137.306Z" fill="#1C1C1B"/>
<path d="M384.947 276.037C384.947 279.885 356.142 281.003 353.029 281.003H137.459C134.35 281.003 105.539 279.885 105.539 276.037L131.826 236.635C131.826 232.787 134.35 229.668 137.459 229.668H353.029C356.142 229.668 358.662 232.787 358.662 236.635L384.947 276.037Z" fill="#B4B4B4"/>
<path d="M200.912 267.26H145.51L155.204 243.793H205.314L200.912 267.26Z" fill="#3C3C3A"/>
<path d="M289.575 267.26H344.978L335.28 243.793H285.174L289.575 267.26Z" fill="#3C3C3A"/>
<path d="M351.135 267.26H370.644L354.68 243.793H339.963L351.135 267.26Z" fill="#3C3C3A"/>
<path d="M139.355 267.26H119.844L135.81 243.793H150.524L139.355 267.26Z" fill="#3C3C3A"/>
<path d="M284.701 267.26H205.784L210.184 243.793H280.301L284.701 267.26Z" fill="#3C3C3A"/>
<path d="M365.83 251.668H124.659V248.076H365.83V251.668Z" fill="#B4B4B4"/>
<path d="M368.445 260.468H122.045V256.876H368.445V260.468Z" fill="#B4B4B4"/>
<path d="M389.359 285.461C389.359 288.572 388.715 291.093 385.607 291.093H110.755C107.641 291.093 107 288.572 107 285.461V280.632C107 277.521 107.641 275 110.755 275H385.607C388.715 275 389.359 277.521 389.359 280.632V285.461Z" fill="#3C3C3A"/>
<path d="M296.76 282.883C296.76 284.503 295.448 285.817 293.828 285.817H196.661C195.04 285.817 193.728 284.503 193.728 282.883C193.728 281.263 195.04 279.95 196.661 279.95H293.828C295.448 279.95 296.76 281.263 296.76 282.883Z" fill="#707070"/>
<path d="M361.477 231.316C361.477 234.427 358.956 236.951 355.843 236.951H134.644C131.532 236.951 129.009 234.427 129.009 231.316V87.0052C129.009 83.8946 131.532 81.3719 134.644 81.3719H355.843C358.956 81.3719 361.477 83.8946 361.477 87.0052V231.316Z" fill="#3C3C3A"/>
<path d="M245.244 89.2077C248.272 89.2077 248.272 84.5131 245.244 84.5131C242.216 84.5131 242.216 89.2077 245.244 89.2077Z" fill="white"/>
<path d="M345.205 222.245C345.205 224.921 343.036 227.09 340.363 227.09H150.127C147.453 227.09 145.281 224.921 145.281 222.245V98.1422C145.281 95.4662 147.453 93.2968 150.127 93.2968H340.363C343.036 93.2968 345.205 95.4662 345.205 98.1422V222.245Z" fill="white"/>
<path d="M216.141 143.599L199.547 160.191" stroke="#325975" stroke-width="4.4" stroke-miterlimit="10" stroke-linecap="round" stroke-linejoin="round"/>
<path d="M216.141 160.194L199.548 143.601" stroke="#325975" stroke-width="4.4" stroke-miterlimit="10" stroke-linecap="round" stroke-linejoin="round"/>
<path d="M290.941 143.599L274.346 160.191" stroke="#325975" stroke-width="4.4" stroke-miterlimit="10" stroke-linecap="round" stroke-linejoin="round"/>
<path d="M290.941 160.194L274.349 143.601" stroke="#325975" stroke-width="4.4" stroke-miterlimit="10" stroke-linecap="round" stroke-linejoin="round"/>
<path d="M283.493 180.216V196.593C283.493 199.835 280.865 202.461 277.626 202.461H274.462C271.222 202.461 268.594 199.835 268.594 196.593V180.216" fill="#F29BB4"/>
<path d="M278.617 181.072L276.043 200.138L273.471 181.072H278.617Z" fill="#EF82A2"/>
<path d="M195.519 180.198H294.968" stroke="#325975" stroke-width="3.66667" stroke-miterlimit="10" stroke-linecap="round" stroke-linejoin="round"/>
<path d="M179.244 177.772C188.703 177.772 188.703 163.105 179.244 163.105C169.786 163.105 169.786 177.772 179.244 177.772Z" fill="#F7C3D2"/>
<path d="M311.244 177.772C320.703 177.772 320.703 163.105 311.244 163.105C301.786 163.105 301.786 177.772 311.244 177.772Z" fill="#F7C3D2"/>
<path d="M323.711 62.1498V110.55C323.711 115.279 331.044 115.279 331.044 110.55V62.1498C331.044 57.4204 323.711 57.4204 323.711 62.1498Z" fill="#E4F2FF"/>
<path d="M327.377 129.25C334.471 129.25 334.471 118.25 327.377 118.25C320.284 118.25 320.284 129.25 327.377 129.25Z" fill="#E4F2FF"/>
</g>
<defs>
<clipPath id="clip0_1_2">
<rect width="503.381" height="362.617" fill="white"/>
</clipPath>
</defs>
</svg>
