<svg width="64" height="64" viewBox="0 0 64 64" fill="none" xmlns="http://www.w3.org/2000/svg">
<path d="M55.513 14.8403C55.5136 15.4136 55.401 15.9814 55.1815 16.511C54.962 17.0407 54.64 17.5217 54.234 17.9265C53.828 18.3313 53.346 18.6519 52.8157 18.8698C52.2854 19.0877 51.7173 19.1986 51.1439 19.1963H43.195C43.0624 19.1963 42.9352 19.249 42.8414 19.3427C42.7476 19.4365 42.695 19.5637 42.695 19.6963V49.0103C42.6982 50.1627 42.245 51.2696 41.4346 52.089C40.6242 52.9084 39.5224 53.3737 38.37 53.3833C37.7109 53.3757 37.0626 53.2155 36.4758 52.9154C35.8891 52.6152 35.3798 52.1832 34.988 51.6533L9.36395 17.4883C9.02029 17.0392 8.76915 16.5264 8.62509 15.9796C8.48103 15.4328 8.44692 14.8628 8.52472 14.3027C8.60252 13.7426 8.7907 13.2035 9.07834 12.7167C9.36598 12.2298 9.74736 11.8049 10.2004 11.4665C10.6534 11.1281 11.1691 10.883 11.7176 10.7453C12.266 10.6077 12.8364 10.5802 13.3955 10.6646C13.9547 10.7489 14.4915 10.9434 14.975 11.2367C15.4584 11.53 15.8789 11.9163 16.212 12.3733L33.849 35.8883C33.8701 35.916 33.8993 35.9365 33.9326 35.9468C33.966 35.9571 34.0017 35.9567 34.0348 35.9457C34.0679 35.9347 34.0967 35.9136 34.1172 35.8853C34.1376 35.8571 34.1487 35.8231 34.149 35.7883V14.9233C34.149 13.7899 34.5991 12.7029 35.4004 11.9014C36.2018 11.0999 37.2886 10.6495 38.422 10.6493H51.2429C52.3621 10.6493 53.4366 11.0883 54.2355 11.872C55.0345 12.6556 55.4942 13.7213 55.516 14.8403" fill="#ED1D24"/>
</svg>
